<svg id="Capa_1" enable-background="new 0 0 512 512" height="512" viewBox="0 0 512 512" width="512" xmlns="http://www.w3.org/2000/svg"><g><g><path d="m338.494 382.74v121.758h-195.524l-29.139-60.879 29.139-60.879z" fill="#f9ed80"/><path d="m142.97 382.74v121.758h-58.278c0-94.191 58.278-121.758 58.278-121.758z" fill="#da9d81"/><path d="m438.058 234.839c0-.002 0-.003 0-.005 0-28.835-5.884-56.327-16.512-81.325l-192.108-28.862-192.119 28.862c-10.617 24.998-16.502 52.49-16.502 81.325v.005z" fill="#5c586f"/><path d="m85.223 226.171c0-28.169 6.29-56.346 17.559-82.497l-65.463 9.834c-10.617 24.998-16.502 52.49-16.502 81.325v.005h64.616c-.132-2.873-.21-5.761-.21-8.667z" fill="#4f4c5f"/><circle cx="400.744" cy="234.839" fill="#c7856a" r="45.948"/><circle cx="229.434" cy="234.839" fill="#da9d81" r="171.309"/><path d="m216.214 405.645c-76.221-25.631-130.991-96.299-130.991-179.474 0-47.364 17.763-94.758 47.13-132.483-32.764 22.577-57.265 56.269-68.092 95.626-2.009-.269-4.054-.423-6.137-.423-25.377 0-45.948 20.571-45.948 45.948 0 25.376 20.572 45.948 45.948 45.948 2.078 0 4.118-.155 6.122-.424 18.816 68.422 78.996 119.713 151.968 125.282z" fill="#c7856a"/><path d="m362.472 65.359c-.342-.081-.685-.16-1.029-.236l-.114-.025-.006-.012c-15.096-31.911-50.41-48.964-84.788-40.945l-.064-.051c-27.466-22.126-66.639-22.119-94.096.017l-.042.034c-34.067-8.517-69.401 8.247-84.353 40.02l-.441.937-.127.028c-.344.077-.687.155-1.029.236-42.854 10.158-35.465 73.256 8.577 73.27l248.932-.017c44.042-.003 51.435-63.104 8.58-73.256z" fill="#5c586f"/><path d="m105.032 138.632c29.751-64.654 90.101-115.807 160.89-121.655-26.314-14.676-59.443-12.301-83.546 7.13l-.042.034c-34.067-8.517-69.401 8.247-84.353 40.02l-.441.937-.127.028c-.344.077-.687.155-1.029.236-42.854 10.159-35.465 73.256 8.577 73.27z" fill="#4f4c5f"/><path d="m421.545 153.509h-384.226c7.792-18.324 18.097-35.306 30.537-50.517h323.142c12.441 15.211 22.766 32.193 30.547 50.517z" fill="#f9ed80"/><path d="m239.056 386.268h198.87v40.182h-198.87z" fill="#c7c5cb"/><path d="m338.49 359.475c-21.147 0-38.289 17.143-38.289 38.289v68.446c0 21.147 17.143 38.289 38.289 38.289 21.147 0 38.289-17.143 38.289-38.289v-68.446c.001-21.146-17.142-38.289-38.289-38.289z" fill="#da9d81"/><path d="m479.732 386.268h-41.807v40.182h41.807c11.096 0 20.091-8.995 20.091-20.091 0-11.096-8.995-20.091-20.091-20.091z" fill="#c7c5cb"/><path d="m437.925 339.663c-13.396 0-24.256 10.86-24.256 24.256v84.88c0 13.396 10.86 24.256 24.256 24.256 13.396 0 24.256-10.86 24.256-24.256v-84.88c0-13.397-10.86-24.256-24.256-24.256z" fill="#5c586f"/><path d="m197.248 386.268h41.807v40.182h-41.807c-11.096 0-20.091-8.995-20.091-20.091 0-11.096 8.995-20.091 20.091-20.091z" fill="#c7c5cb"/><path d="m239.055 339.663c13.396 0 24.256 10.86 24.256 24.256v84.88c0 13.396-10.86 24.256-24.256 24.256-13.396 0-24.256-10.86-24.256-24.256v-84.88c0-13.397 10.86-24.256 24.256-24.256z" fill="#5c586f"/><ellipse cx="121.791" cy="267.244" fill="#fff" rx="39.716" ry="31.628"/><ellipse cx="337.064" cy="267.244" fill="#fff" rx="39.716" ry="31.628"/><ellipse cx="229.428" cy="242.943" fill="#423e4f" rx="21.082" ry="23.591"/><path d="m125.494 102.992h-57.638c-12.44 15.211-22.745 32.193-30.537 50.517h61.492c6.709-17.844 15.738-34.883 26.683-50.517z" fill="#f8d070"/><path d="m319.815 430.557c0-27.841 10.253-52.885 26.587-70.259-2.553-.537-5.199-.823-7.911-.823-21.147 0-38.289 17.143-38.289 38.29v68.446c0 21.147 17.143 38.29 38.289 38.29 3.523 0 6.93-.485 10.17-1.376-17.641-17.426-28.846-43.466-28.846-72.568z" fill="#c7856a"/></g><g><path d="m229.427 274.034c15.76 0 28.583-13.947 28.583-31.091s-12.822-31.091-28.583-31.091-28.582 13.947-28.582 31.091 12.822 31.091 28.582 31.091zm0-47.181c7.489 0 13.583 7.218 13.583 16.091s-6.093 16.091-13.583 16.091-13.582-7.218-13.582-16.091 6.093-16.091 13.582-16.091z"/><path d="m139.518 228.829c0-5.608 4.563-10.17 10.17-10.17 5.608 0 10.171 4.563 10.171 10.17 0 4.142 3.358 7.5 7.5 7.5s7.5-3.358 7.5-7.5c0-13.879-11.292-25.17-25.171-25.17s-25.17 11.292-25.17 25.17c0 4.142 3.358 7.5 7.5 7.5s7.5-3.358 7.5-7.5z"/><path d="m297.474 228.829c0-5.608 4.563-10.17 10.17-10.17 5.608 0 10.171 4.563 10.171 10.17 0 4.142 3.358 7.5 7.5 7.5s7.5-3.358 7.5-7.5c0-13.879-11.292-25.17-25.171-25.17s-25.17 11.292-25.17 25.17c0 4.142 3.358 7.5 7.5 7.5s7.5-3.358 7.5-7.5z"/><path d="m58.125 288.287c.203 0 .41-.008.614-.011 5.373 17.183 13.363 33.529 23.823 48.563 2.365 3.399 7.038 4.239 10.44 1.873 3.4-2.366 4.238-7.04 1.873-10.44-10.651-15.309-18.503-32.108-23.376-49.794-.009-.032-.012-.065-.021-.097-10.977-39.914-6.174-82.015 11.707-117.372h292.501c32.432 64.136 18.834 141.72-32.055 191.255-1.45-.16-3.365-.289-5.14-.289-.009 0-.017 0-.025 0-17.941.012-34.202 10.349-41.654 26.792h-26v-14.849c0-17.417-14.139-31.756-31.756-31.756-17.511 0-31.756 14.246-31.756 31.756v14.849h-10.051c-8.359 0-16.541 3.836-21.857 10.741-23.301-8.151-44.624-21.605-62.057-39.12-2.923-2.936-7.671-2.946-10.607-.024s-2.947 7.67-.024 10.606c8.07 8.107 16.908 15.4 26.332 21.803-5.895 4.419-13.529 11.188-21.117 20.909-14.017 17.958-30.727 50.026-30.727 100.815 0 4.142 3.358 7.5 7.5 7.5h253.712.003c.028 0 .055.002.083.002 25.248 0 45.789-20.541 45.789-45.79v-32.259h21.89v14.849c0 17.51 14.246 31.756 31.756 31.756 17.511 0 31.756-14.246 31.756-31.756v-14.849h10.051c15.214 0 27.591-12.377 27.591-27.591s-12.377-27.591-27.591-27.591h-10.051v-14.849c0-17.51-14.246-31.756-31.756-31.756s-31.756 14.246-31.756 31.756v14.849h-26.033c-4.227-9.229-11.426-16.817-20.373-21.532 13.791-14.651 24.914-31.354 33.124-49.805 2.792-6.274 5.192-12.666 7.227-19.154.21.002.422.011.631.011 29.472 0 53.448-23.977 53.448-53.448 0-12.261-4.16-23.563-11.129-32.59-2.706-17.803-7.604-35.18-14.616-51.674 0-.001-.001-.002-.001-.003-7.639-17.986-17.704-34.856-29.926-50.191-.313-16.967-10.093-35.471-32.029-41.722-8.191-15.506-21.24-28.128-37.07-35.772-15.823-7.641-33.813-10.014-51.044-6.793-14.122-10.404-31.364-16.095-48.944-16.095-.004 0-.01 0-.015 0-17.541.003-34.744 5.672-48.869 16.051-35.482-7.171-71.757 10.292-88.232 42.624-21.893 6.262-31.665 24.752-31.983 41.705-12.189 15.296-22.252 32.167-29.918 50.194 0 0 0 .001-.001.002-7.005 16.494-11.899 33.868-14.604 51.664-6.973 9.029-11.135 20.334-11.135 32.599 0 29.472 23.976 53.448 53.448 53.448zm234.749 105.481c-.351 4.022-.08 8.972-.173 25.182h-21.889v-25.182zm-53.818 71.787c-9.239 0-16.756-7.517-16.756-16.756 0-8.715 0-73.458 0-84.88 0-9.255 7.532-16.756 16.755-16.756 9.293 0 16.756 7.594 16.756 16.756v84.88c.001 9.24-7.518 16.756-16.755 16.756zm-31.757-71.787v25.182h-10.051c-6.943 0-12.591-5.648-12.591-12.591 0-6.993 5.713-12.591 12.591-12.591zm-114.973 103.23c1.2-33.254 10.431-61.964 26.879-83.391 5.745-7.483 11.53-12.982 16.263-16.821 0 9.166.001 87.499.001 100.212zm58.143-101.7c6.287 3.091 13.193 5.982 19.339 8.161-1.723 16.245 11.065 30.491 27.44 30.491h10.051v14.849c0 17.51 14.246 31.756 31.756 31.756 17.328 0 31.756-14.08 31.756-31.756v-14.849h21.889v32.261c0 9.566 3.006 18.578 8.083 25.938 1.174 1.702 2.454 3.325 3.841 4.85h-154.154c0-8.312-.001-88.971-.001-101.701zm329.264-1.53c6.942 0 12.591 5.648 12.591 12.591s-5.648 12.591-12.591 12.591h-10.051v-25.182zm-58.564-29.849c0-9.239 7.517-16.756 16.756-16.756s16.756 7.517 16.756 16.756v84.88c0 9.239-7.517 16.756-16.756 16.756s-16.756-7.517-16.756-16.756c0-8.715 0-73.458 0-84.88zm-37.062 29.849h22.062v25.182h-21.889c-.096-16.959.176-21.177-.173-25.182zm-14.829 3.957c0 .013.001.026.001.04v68.446c0 16.978-13.812 30.79-30.789 30.79-.021 0-.043-.001-.064-.001-.002 0-.004 0-.006 0-16.938-.038-30.719-13.849-30.719-30.788 0-15.773 0-53.982 0-68.446 0-17.63 14.808-31.623 32.341-30.75 16.184.813 29.213 14.212 29.236 30.709zm-335.228-210.612c2.167-8.888 4.94-17.613 8.299-26.104h24.201c-2.597 5.719-5.605 13.421-7.785 20.386-8.714-.064-17.082 1.868-24.715 5.718zm-14.373 47.726c0-19.819 15.134-36.49 35.07-38.287-5.307 24.311-5.659 50.669-.009 76.587-19.62-1.721-35.061-18.241-35.061-38.3zm405.146-47.724c-7.228-3.653-15.892-5.821-24.718-5.72-2.01-6.42-4.882-13.988-7.785-20.386h24.198c3.362 8.491 6.136 17.215 8.305 26.106zm-20.688 86.024c5.618-25.725 5.342-52.067-.012-76.586 20.289 1.823 35.07 18.841 35.07 38.287 0 20.057-15.44 36.577-35.058 38.299zm-332.683-162.647h213.499c4.142 0 7.5-3.358 7.5-7.5s-3.358-7.5-7.5-7.5h-209.146c1.718-9.777 8.175-19.481 22.31-22.832.538-.128.886-.203 1.064-.244 4.196-.94 5.408-4.815 5.588-5.063 13.388-28.449 45.244-43.563 75.748-35.937 2.281.57 4.738.004 6.568-1.471 11.951-9.634 26.987-14.942 42.339-14.945h.012c15.347 0 30.381 5.302 42.389 14.975 1.798 1.452 4.165 1.995 6.416 1.469 14.964-3.49 30.824-1.732 44.66 4.949 13.836 6.682 25.075 18.01 31.612 31.829 1.681 3.667 5.212 4.175 5.312 4.223 13.575 3.005 21.231 11.648 23.23 23.046h-68.102c-4.142 0-7.5 3.358-7.5 7.5s3.358 7.5 7.5 7.5h72.453c8.722 11.053 16.242 22.952 22.451 35.517-20.705 0-347.862 0-360.842 0 6.221-12.589 13.738-24.488 22.439-35.516z"/></g></g></svg>