<svg id="Capa_1" enable-background="new 0 0 512 512" height="512" viewBox="0 0 512 512" width="512" xmlns="http://www.w3.org/2000/svg"><g><g><circle cx="256" cy="256" fill="#fef48b" r="248.509"/></g><g><path d="m504.513 256c0 137.249-111.264 248.513-248.513 248.513-40.357 0-78.472-9.619-112.171-26.702 28.766 11.652 60.212 18.06 93.164 18.06 137.249 0 248.513-111.264 248.513-248.513 0-96.891-55.448-180.826-136.342-221.811 91.09 36.86 155.349 126.156 155.349 230.453z" fill="#fee903"/></g><g><path d="m106.681 298.198c-2.115-11.121 6.411-21.427 17.731-21.427h131.588 131.587c11.32 0 19.846 10.306 17.731 21.427-6.984 36.727-26.151 62.947-48.519 81.574-58.18 48.447-143.42 48.447-201.6 0-22.367-18.626-41.534-44.846-48.518-81.574z" fill="#fffbe5"/></g><g><path d="m405.319 298.201c-6.987 36.729-26.154 62.943-48.52 81.572-41.055 34.188-95.596 44.255-144.575 30.181 44.324 6.21 90.742-5.781 126.992-35.972 23.124-19.247 42.939-46.348 50.155-84.313.887-4.655-.04-9.17-2.233-12.898h.448c11.324.001 19.846 10.307 17.733 21.43z" fill="#fff8bf"/></g><g><path d="m360.497 376.593c-1.226 1.087-2.452 2.143-3.698 3.179-58.179 48.451-143.418 48.451-201.597 0-1.246-1.036-2.472-2.093-3.698-3.179 5.183-26.941 28.885-47.294 57.351-47.294 16.256 0 30.954 6.644 41.539 17.361 3.088 3.126 8.124 3.126 11.211 0 10.585-10.717 25.283-17.361 41.539-17.361 28.467 0 52.17 20.353 57.353 47.294z" fill="#f47c7c"/></g><g><path d="m360.497 376.593c-.618.548-1.226 1.077-1.844 1.605-7.838 6.698-16.302 12.676-25.305 17.738-8.786 4.939-18.05 9.024-27.621 12.184-6.573 2.17-13.395 4.112-20.223 5.223-2.145.408-4.382.836-6.509 1.086-8.594 1.013-17.229 2.002-25.905 1.655-10.073-.403-20.384-1.351-30.071-3.439-2.946-.635-5.966-1.264-8.841-2.143-.648-.179-1.306-.359-1.954-.548 44.324 6.21 90.742-5.781 126.992-35.972 5.253-4.376 10.346-9.16 15.14-14.383 2.881 5.223 4.974 10.944 6.141 16.994z" fill="#ee6161"/></g><g><path d="m437.02 74.981c-48.352-48.352-112.64-74.981-181.02-74.981-28.465 0-56.426 4.641-83.106 13.794-3.913 1.342-5.998 5.603-4.655 9.516 1.343 3.914 5.604 6 9.516 4.654 25.112-8.615 51.438-12.982 78.245-12.982 64.378 0 124.904 25.07 170.426 70.592 45.523 45.523 70.593 106.047 70.593 170.426s-25.07 124.904-70.593 170.427c-45.522 45.522-106.048 70.592-170.426 70.592s-124.904-25.07-170.426-70.593c-45.522-45.522-70.592-106.048-70.592-170.426 0-45.266 12.617-89.378 36.488-127.567 23.227-37.16 56.101-67.32 95.066-87.219 3.684-1.882 5.146-6.394 3.264-10.078-1.881-3.685-6.393-5.144-10.078-3.265-41.381 21.133-76.292 53.161-100.956 92.62-25.361 40.574-38.766 87.432-38.766 135.509 0 68.38 26.629 132.668 74.981 181.02s112.639 74.98 181.019 74.98 132.668-26.629 181.02-74.981 74.98-112.639 74.98-181.019-26.628-132.667-74.98-181.019z"/><path d="m104.741 278.536c-4.87 5.883-6.845 13.56-5.419 21.062 6.505 34.209 23.692 63.12 51.085 85.931 29.482 24.549 66.982 38.07 105.593 38.07s76.112-13.521 105.593-38.07c27.392-22.81 44.58-51.722 51.085-85.931 1.427-7.503-.549-15.179-5.419-21.062-4.869-5.883-12.039-9.255-19.672-9.255h-263.174c-7.634-.001-14.804 3.372-19.672 9.255zm290.978 9.552c2.015 2.434 2.831 5.608 2.241 8.71-4.813 25.314-16.182 47.405-33.831 65.888-3.589-8.782-9.052-16.696-16.169-23.299-3.032-2.814-7.772-2.635-10.586.396-2.814 3.033-2.636 7.773.396 10.587 6.956 6.454 11.881 14.516 14.397 23.507-.055.046-.106.094-.161.139-26.795 22.313-60.891 34.601-96.006 34.601-27.922 0-55.195-7.777-78.669-22.178-4.667-2.863-9.185-5.994-13.496-9.344-1.296-1.007-2.58-2.031-3.844-3.083-.009-.008-.018-.015-.028-.023-.044-.036-.085-.075-.128-.111 6.097-21.726 26.076-37.088 49.021-37.088 13.711 0 26.57 5.375 36.21 15.135 2.911 2.948 6.795 4.572 10.935 4.572s8.024-1.624 10.935-4.572c9.64-9.76 22.499-15.135 36.21-15.135 2.554 0 5.117.19 7.617.564 4.097.618 7.905-2.206 8.518-6.299.612-4.092-2.208-7.904-6.299-8.517-3.232-.484-6.541-.73-9.836-.73-17.747 0-34.393 6.956-46.869 19.588-.035.035-.116.118-.277.118-.16 0-.241-.083-.276-.118-12.476-12.632-29.122-19.588-46.869-19.588-27.114 0-51.014 16.59-60.975 40.887-17.654-18.485-29.026-40.579-33.84-65.897-.59-3.102.227-6.276 2.241-8.71 2.013-2.432 4.976-3.826 8.131-3.826h263.175c3.155 0 6.119 1.395 8.132 3.826z"/><path d="m172.434 156.794c-15.671 0-28.421 12.75-28.421 28.421v27.556c0 4.138 3.354 7.491 7.491 7.491s7.491-3.353 7.491-7.491v-27.556c0-7.411 6.029-13.44 13.439-13.44 7.411 0 13.44 6.029 13.44 13.44v27.556c0 4.138 3.354 7.491 7.491 7.491s7.491-3.353 7.491-7.491v-27.556c-.001-15.671-12.751-28.421-28.422-28.421z"/><path d="m352.477 220.262c4.137 0 7.491-3.353 7.491-7.491v-27.556c0-15.671-12.75-28.421-28.421-28.421-15.672 0-28.421 12.75-28.421 28.421v27.556c0 4.138 3.354 7.491 7.491 7.491s7.491-3.353 7.491-7.491v-27.556c0-7.411 6.029-13.44 13.44-13.44 7.41 0 13.439 6.029 13.439 13.44v27.556c-.001 4.138 3.353 7.491 7.49 7.491z"/></g></g></svg>