<svg id="Capa_1" enable-background="new 0 0 512 512" height="512" viewBox="0 0 512 512" width="512" xmlns="http://www.w3.org/2000/svg"><g><g><path d="m330.836 439.827h50.047c0-94.088 50.191-169.153 50.698-169.9h-57.673c-17.609 34.194-43.072 96.35-43.072 169.9z" fill="#c7c5cb"/><path d="m386.523 405.254-291.619 23.02c-19.855 1.567-35.168 18.137-35.168 38.054 0 21.082 17.09 38.172 38.172 38.172h292.526c27.449 0 49.7-22.251 49.7-49.7 0-28.99-24.711-51.827-53.611-49.546z" fill="#5c586f"/><path d="m298.828 122.363-.036-.481c-7.58-64.412-62.357-114.382-128.806-114.382-71.633 0-129.703 58.07-129.703 129.702v73.931c0 47.997 38.909 86.906 86.906 86.906h29.358l30.182-33.913c-.135 0-.268.005-.403.005z" fill="#60d9a7"/><path d="m98.212 144.397c0-63.218 37.847-116.829 90.274-135.586-6.043-.863-12.219-1.311-18.5-1.311-71.633 0-129.702 58.07-129.702 129.702v73.931c0 47.997 38.909 86.906 86.906 86.906h29.358l20.357-22.874c-46.328-22.067-78.693-72.309-78.693-130.768z" fill="#00cd8c"/><path d="m260.78 297.425v24.983c0 5.365-.671 10.56-1.932 15.534l-61.102 23.747-61.102-23.747c-1.261-4.975-1.932-10.169-1.932-15.534v-24.983c0-34.813 28.216-63.039 63.029-63.039s63.039 28.227 63.039 63.039z" fill="#ff889e"/><path d="m160.612 312.304c0-34.396 26.224-63.441 62.166-72.737-7.676-3.327-16.139-5.181-25.037-5.181-34.813 0-63.029 28.227-63.029 63.039v24.983c0 5.365.671 10.56 1.932 15.535l28.382 11.03c-3.276-11.601-4.414-24.226-4.414-36.669z" fill="#ff748f"/><path d="m298.828 122.363c-24.131-5.073-54.77-15.49-78.864-36.712-8.245-7.262-20.695-7.078-28.863.271-39.333 35.387-93.53 40.542-115.635 41.089-1.741 8.162-2.611 16.646-2.491 25.354.876 63.082 52.315 112.862 115.393 111.748 61.666-1.089 111.319-51.418 111.319-113.344z" fill="#ffdcce"/><path d="m205.116 371.074c-10.179-10.179-26.683-10.179-36.862 0l-38.659 38.659c-10.179 10.179-10.179 26.683 0 36.862 10.179 10.179 26.682 10.179 36.861 0l38.659-38.659c10.18-10.18 10.18-26.683.001-36.862z" fill="#ffcabd"/><path d="m215.207 347.316c-14.395 0-26.065 11.67-26.065 26.065v54.673c0 14.395 11.67 26.065 26.065 26.065 14.395 0 26.065-11.67 26.065-26.065v-54.673c0-14.395-11.67-26.065-26.065-26.065z" fill="#ffdcce"/><path d="m258.848 337.943c-2.833 11.16-8.638 21.14-16.535 29.037-11.411 11.401-27.165 18.457-44.572 18.457-29.448 0-54.181-20.199-61.097-47.495h122.204z" fill="#5c586f"/><g><g><ellipse cx="205.571" cy="162.608" fill="#423e4f" rx="12.346" ry="13.815"/></g></g><path d="m353.336 317.13h53.849c12.222-29.005 24.15-46.841 24.396-47.204h-57.673c-6.357 12.345-13.735 28.35-20.572 47.204z" fill="#a19dae"/><path d="m458.12 139.173-14.205-3.402c-9.517-2.28-19.081 3.588-21.36 13.105l-21.128 88.207h-53.788c-27.64 0-50.047 22.407-50.047 50.047h123.572c11.574 0 21.639-7.938 24.335-19.195l25.725-107.402c2.281-9.517-3.587-19.08-13.104-21.36z" fill="#5c586f"/><path d="m320.944 252.51c-7.344-13.31-24.089-18.147-37.399-10.802-17.232 9.508-36.547 7.743-50.537 4.179-12.15-3.095-24.863 2.296-30.957 13.253-8.741 15.716-.324 35.528 17.096 39.995 4.51 1.157 9.375 2.193 14.52 2.994 22.259 3.465 49.763 2.518 76.473-12.22 13.311-7.345 18.147-24.089 10.804-37.399z" fill="#ffcabd"/><path d="m98.212 144.397c0-6.561.417-13.016 1.206-19.342-9.697 1.318-17.997 1.808-23.953 1.955-1.741 8.162-2.612 16.646-2.491 25.354.692 49.864 32.982 91.41 77.637 106.083-31.822-26.048-52.399-67.437-52.399-114.05z" fill="#ffcabd"/><path d="m162.57 337.943h-25.926c6.178 24.382 26.577 43.088 51.849 46.807-15.341-11.178-22.782-28.227-25.923-46.807z" fill="#4f4c5f"/></g><g><path d="m146.423 162.989c4.142 0 7.5-3.358 7.5-7.5v-11.023c0-4.142-3.358-7.5-7.5-7.5s-7.5 3.358-7.5 7.5v11.023c0 4.142 3.358 7.5 7.5 7.5z"/><path d="m205.569 183.923c10.943 0 19.846-9.563 19.846-21.315 0-11.753-8.903-21.315-19.846-21.315s-19.846 9.562-19.846 21.315 8.903 21.315 19.846 21.315zm0-27.631c2.627 0 4.846 2.892 4.846 6.315s-2.219 6.315-4.846 6.315c-2.626 0-4.846-2.893-4.846-6.315s2.219-6.315 4.846-6.315z"/><path d="m264.715 162.989c4.142 0 7.5-3.358 7.5-7.5v-11.023c0-4.142-3.358-7.5-7.5-7.5s-7.5 3.358-7.5 7.5v11.023c0 4.142 3.358 7.5 7.5 7.5z"/><path d="m83.524 50.844c2.927-2.931 2.924-7.68-.006-10.606-2.931-2.928-7.68-2.925-10.607.006-25.877 25.908-40.129 60.342-40.129 96.958v73.93c0 52.056 42.35 94.406 94.406 94.406h.023c.337 13.26-1.053 21.563 2.16 34.241.501 1.147 4.147 20.821 22.947 36.623l-28.028 28.028c-4.221 4.222-7.073 9.299-8.571 14.677l-21.407 1.69c-23.595 1.862-42.078 21.862-42.078 45.531 0 25.184 20.488 45.672 45.672 45.672h292.526c31.54 0 57.2-25.66 57.2-57.2 0-30.862-24.615-56.445-55.906-57.179 1.514-9.707 3.544-19.558 6.071-29.396 1.03-4.012-1.387-8.1-5.399-9.13-4.013-1.029-8.1 1.387-9.129 5.399-2.925 11.391-5.224 22.812-6.853 34.035-4.902.387-26.085 2.059-35.735 2.821 5.251-43.665 18.524-81.21 29.755-106.719h38.773c-5.242 10.665-11.382 24.492-17.031 40.559-1.374 3.907.68 8.189 4.587 9.563 3.906 1.375 8.189-.679 9.563-4.587 6.769-19.249 14.259-35.12 19.894-45.93 12.879-2.001 23.451-11.534 26.568-24.552l25.726-107.402c3.247-13.555-5.094-27.154-18.651-30.401l-14.205-3.402c-13.522-3.238-27.162 5.128-30.401 18.652l-19.75 82.455h-47.872c-10.61 0-20.756 2.845-29.693 8.26-10.693-8.062-25.52-9.602-38.024-2.702-3.817 2.106-7.776 3.569-11.758 4.532 8.959-8.252 16.682-17.828 22.812-28.408 11.615-20.048 16.765-43.468 16.208-60.724-.857-27.996-.847-28.719-.943-29.537-8.117-68.986-66.695-121.007-136.255-121.007-25.51 0-50.418 7.06-72.03 20.417-3.523 2.178-4.615 6.799-2.437 10.323s6.799 4.615 10.323 2.437c19.241-11.891 41.421-18.177 64.144-18.177 58.458 0 108.205 41.238 119.709 97.498-50.554-13.481-61.82-33.506-73.962-37.942-9.89-3.613-21.355-1.67-29.647 5.791-29.523 26.561-72.311 38.212-110.804 39.167-3.467.085-6.425 2.539-7.149 5.933-11.978 56.145 16.836 112.806 69.024 135.891-5.316 8.963-8.591 19.023-9.602 29.203h-.363c-43.785 0-79.406-35.622-79.406-79.406v-73.93c-.002-32.616 12.691-63.286 35.74-86.361zm107.551 220.694c-.355 12.592 6.226 24.681 17.006 31.051 10.314 6.106 33.921 8.561 45.197 8.705-.109 9.316.317 12.976-.579 19.15h-109.909c-.95-6.549-.427-9.061-.579-32.405.063-.439-.889-16.166 9.324-31.41 9.653 2.861 26.151 5.441 39.54 4.909zm-43.89 73.905h101.101c-5.054 11.065-12.703 17.605-12.615 17.505-27.679 25.886-72.821 16.994-88.486-17.505zm49.455 47.486c13.06.204 25.994-3.223 37.13-9.861v44.985c0 10.237-8.328 18.565-18.565 18.565s-18.565-8.328-18.565-18.565c0-7.821 0-25.781 0-35.124zm-31.614-8.022c5.162 2.699 10.821 4.825 16.614 6.178v29.718l-20.488 20.488c-11.917 11.917-32.713 2.998-31.636-14.292.279-4.52 2.151-8.733 5.381-11.963zm267.607 69.893c0 23.269-18.931 42.2-42.2 42.2h-292.526c-16.913 0-30.672-13.759-30.672-30.672 0-15.895 12.413-29.326 28.258-30.577l19.519-1.541c4.832 26.574 37.682 36.752 56.746 17.688l12.029-12.028c4.892 12.967 17.394 21.749 31.418 21.749 18.508 0 33.565-15.057 33.565-33.565v-4.402c.124-.01 138.512-10.934 138.342-10.92 24.476-1.935 45.521 17.331 45.521 42.068zm-107.183-52.248-76.68 6.053c-.034-36.852.076-35.047-.083-37.43 11.658-12.178 19.591-29.379 19.591-48.766v-11.767c19.72-2.027 39.02-9.497 48.465-16.012h37.365c-11.304 26.842-23.821 64.546-28.658 107.922zm22.188-157.969h53.788c3.469 0 6.486-2.379 7.294-5.753l21.127-88.208c1.313-5.48 6.838-8.871 12.32-7.558 3.152.755-7.736-1.853 14.206 3.402 5.493 1.315 8.874 6.826 7.558 12.319l-25.726 107.402c-1.873 7.822-8.742 13.303-16.759 13.43-.013 0-.026-.002-.039-.002-.133.001-.265.006-.405.014h-55.423-36.541c4.186-9.753 3.682-20.863-1.214-30.161 6.068-3.211 12.805-4.885 19.814-4.885zm-60.471 3.692c4.683-2.584 10.092-3.189 15.232-1.706 17.134 4.949 19.648 28.206 4.117 36.773-23.112 12.752-43.397 12.402-46.091 12.828-13.67.649-43.312-1.03-50.954-12.465-4.317-6.493-4.433-14.518-.866-20.918v-.001c3.766-6.766 11.186-10.476 17.593-10.259 4.885.01 8.266 1.991 17.451 3.004 13.165 1.645 28.907.805 43.518-7.256zm-91.052-156.777c5.113-4.599 13.088-5.227 18.96-.159 21.286 18.734 48.836 30.525 76.431 37.073-.727 10.155 6.426 40.923-13.511 75.334-8.574 14.798-20.684 27.381-35.126 36.528-9.081-1.496-10.975-3.016-18.164-2.72-12.687.523-23.918 7.818-29.62 18.701-17.426 1.465-27.747-.884-43.9-5.525-.001 0-.002 0-.003-.001-47.907-16.646-77.367-65.827-69.435-116.463 25.439-1.379 76.412-8.62 114.368-42.768z"/></g></g></svg>