<svg id="Capa_1" enable-background="new 0 0 512 512" height="512" viewBox="0 0 512 512" width="512" xmlns="http://www.w3.org/2000/svg"><g><g><path d="m256 395.219 29.517 33.181-29.517 33.18-29.517 21.46-29.517-21.46v-39.967c-10.019-7.027-18.467-15.925-24.763-26.394l41.899-33.135z" fill="#5c586f"/><path d="m339.798 395.219c-6.296 10.47-14.744 19.368-24.763 26.394v39.967l-29.517 21.46-29.518-21.46v-66.361l41.899-33.135z" fill="#4f4c5f"/><path d="m135.91 65.881c28.013-35.53 71.431-58.381 120.09-58.381 48.649 0 92.067 22.851 120.08 58.381l-120.085 32.308z" fill="#ed9b83"/><path d="m402.738 203.19c3.975-13.595 6.116-27.965 6.116-42.826 0-10.213-1.012-20.205-2.927-29.867l-149.932-32.308-149.932 32.308c-1.914 9.662-2.927 19.654-2.927 29.867 0 14.862 2.141 29.231 6.116 42.826z" fill="#ed9b83"/><path d="m167.198 154.406c0-13.042 1.325-25.731 3.823-37.906l-64.958 13.997c-1.914 9.662-2.927 19.654-2.927 29.867 0 14.862 2.141 29.231 6.116 42.826h64.187c-4.078-14.432-6.241-30.68-6.241-48.784z" fill="#e7886e"/><path d="m170.083 304.554c-3.805 7.612-6.654 15.799-8.398 24.396l94.31 33.134 94.32-33.134c-1.743-8.597-4.592-16.784-8.398-24.396 37.309-22.313 65.286-58.683 76.546-101.744 5.616-21.477-10.694-42.446-32.892-42.446-7.02 0-13.868 2.175-19.6 6.227h-219.941c-5.733-4.051-12.58-6.227-19.6-6.227-22.199 0-38.508 20.969-32.892 42.446 11.259 43.061 39.235 79.431 76.545 101.744z" fill="#ffcabd"/><path d="m197.675 166.59h-51.645c-5.733-4.051-12.58-6.227-19.6-6.227-22.199 0-38.508 20.97-32.892 42.446 11.26 43.061 39.236 79.432 76.546 101.744-3.805 7.612-6.654 15.799-8.398 24.396l49.078 17.243c-.645-5.048-.988-10.174-.988-15.369 0-33.76 13.991-64.711 37.26-88.814z" fill="#ffbfb0"/><path d="m371.52 160.364c0 63.793-51.726 115.52-115.52 115.52-63.803 0-115.53-51.726-115.53-115.52 0-10.323 1.353-20.336 3.909-29.867h223.232c2.556 9.531 3.909 19.543 3.909 29.867z" fill="#ffdcce"/><path d="m244.32 7.958c-43.889 3.333-82.66 25.264-108.41 57.924l47.337 12.735c13.564-30.043 34.942-54.752 61.073-70.659z" fill="#e7886e"/><path d="m376.08 65.881c-8.21 0-236.902 0-240.17 0-14.643 18.562-25.066 40.581-29.847 64.615h299.864c-4.781-24.034-15.214-46.053-29.847-64.615z" fill="#59c2e7"/><path d="m467.694 328.95h-423.388c-11.984 0-21.698 9.715-21.698 21.698v22.872c0 11.984 9.715 21.698 21.698 21.698h423.389c11.984 0 21.698-9.715 21.698-21.698v-22.872c0-11.984-9.715-21.698-21.699-21.698z" fill="#59c2e7"/><path d="m256 461.58v13.402c0 16.288-13.202 29.517-29.517 29.517-16.295 0-29.517-13.212-29.517-29.517v-13.402z" fill="#ffdcce"/><path d="m256 461.58v13.402c0 16.288 13.202 29.517 29.517 29.517 16.295 0 29.517-13.212 29.517-29.517v-13.402z" fill="#ffbfb0"/><path d="m167.198 154.406c0-8.12.522-16.101 1.511-23.909h-24.33c-2.556 9.531-3.909 19.544-3.909 29.867 0 52.974 35.671 97.624 84.305 111.246-35.931-21.01-57.577-59.827-57.577-117.204z" fill="#ffcabd"/><path d="m189.645 65.881c-30.535 0-52.733 0-53.735 0-14.643 18.562-25.066 40.581-29.847 64.615h62.646c2.976-23.489 10.269-45.386 20.936-64.615z" fill="#34b5e1"/></g><g><path d="m187.122 179.515c4.143 0 7.5-3.358 7.5-7.5v-13.235c0-4.142-3.357-7.5-7.5-7.5-4.142 0-7.5 3.358-7.5 7.5v13.235c0 4.142 3.358 7.5 7.5 7.5z"/><path d="m324.878 179.515c4.142 0 7.5-3.358 7.5-7.5v-13.235c0-4.142-3.358-7.5-7.5-7.5s-7.5 3.358-7.5 7.5v13.235c0 4.142 3.358 7.5 7.5 7.5z"/><path d="m256 187.394c9.127 0 17.807-3.953 23.813-10.845 2.721-3.123 2.396-7.86-.727-10.582s-7.86-2.396-10.582.727c-3.157 3.623-7.715 5.7-12.505 5.7s-9.348-2.078-12.505-5.7c-2.721-3.123-7.459-3.448-10.582-.727s-3.448 7.458-.727 10.582c6.008 6.892 14.688 10.845 23.815 10.845z"/><path d="m44.306 402.718h123.775c5.761 8.646 12.929 16.258 21.385 22.701v36.161 13.402c0 20.412 16.606 37.018 37.018 37.018 12.04 0 22.752-5.781 29.517-14.71 6.765 8.929 17.477 14.71 29.517 14.71 20.412 0 37.018-16.606 37.018-37.018v-13.402-36.161c8.456-6.442 15.624-14.055 21.385-22.701h123.775c16.1 0 29.198-13.098 29.198-29.199v-22.871c0-16.101-13.098-29.199-29.198-29.199h-111.44c-1.265-4.788-2.854-9.479-4.771-14.031 10.005-6.519 19.358-14.065 27.87-22.492 2.944-2.915 2.967-7.663.053-10.606s-7.663-2.967-10.606-.053c-9.256 9.165-19.596 17.188-30.734 23.85-3.367 2.014-4.613 6.281-2.859 9.791 2.177 4.355 4 8.885 5.45 13.542h-169.319c1.451-4.657 3.273-9.187 5.451-13.542 1.754-3.509.508-7.777-2.859-9.791-35.949-21.5-62.607-56.929-73.139-97.205-5.155-19.717 13.182-37.386 32.461-32.137 4.48 65.447 59.636 116.195 125.846 114.569 30.929-.768 60.296-12.968 82.797-34.921 21.824-21.292 34.801-49.437 36.838-79.646 9.665-2.611 20.865.388 27.824 9.402 5.028 6.512 6.722 14.797 4.647 22.732-4.91 18.778-13.151 36.371-24.494 52.288-2.404 3.374-1.618 8.057 1.755 10.46 3.373 2.404 8.056 1.618 10.46-1.755 12.404-17.407 21.417-36.651 26.79-57.198 3.49-13.348.248-27.595-9.498-38.306 1.49-36.516-9.891-74.262-34.251-105.163-30.682-38.917-76.596-61.237-125.968-61.237-16.701 0-33.193 2.582-49.021 7.674-3.943 1.269-6.111 5.494-4.842 9.437s5.493 6.111 9.437 4.842c14.341-4.614 29.288-6.953 44.426-6.953 39.332 0 76.246 15.634 103.499 43.381h-206.997c9.257-9.403 19.725-17.484 31.262-24.12 3.591-2.065 4.827-6.65 2.762-10.241s-6.65-4.827-10.241-2.762c-17.902 10.297-33.467 23.747-46.264 39.977v.001s0 .001-.001.001c-15.595 19.77-26.423 43.213-31.313 67.795v.002c0 .001 0 .002-.001.004-2.401 12.122-3.447 24.82-2.936 37.372-9.712 10.684-12.988 24.913-9.489 38.296 10.951 41.881 37.837 78.964 74.234 102.71-1.917 4.553-3.507 9.244-4.771 14.033h-111.438c-16.1 0-29.199 13.098-29.199 29.199v22.871c0 16.101 13.099 29.199 29.199 29.199zm68.049-264.721h22.649c-.821 4.453-1.582 10.675-1.84 15.42-6.704-1.183-14.932-.551-22.46 2.521.182-6.008.734-12.01 1.651-17.941zm288.931 17.937c-6.936-2.829-14.552-3.768-22.46-2.516-.271-4.901-.977-10.736-1.84-15.421h22.649c.916 5.929 1.469 11.93 1.651 17.937zm-39.603-17.937c13.838 65.496-35.023 128.604-102.963 130.353-59.233 1.47-109.14-45.361-110.711-105.098-.034-9.623.257-15.561 2.297-25.254h211.377zm-222.079-64.616h232.781c11.113 14.846 19.336 31.796 24.099 49.615-13.675 0-269.6 0-280.977 0 4.764-17.831 12.986-34.78 24.097-49.615zm47.353 329.338h61.543v51.361h-44.035v-32.467c0-2.445-1.192-4.736-3.193-6.141-5.35-3.751-10.135-8.016-14.315-12.753zm39.526 94.281c-12.141 0-22.018-9.877-22.018-22.018v-5.902h44.035v5.902c0 12.141-9.877 22.018-22.017 22.018zm81.052-22.018c0 12.141-9.877 22.018-22.018 22.018-12.14 0-22.017-9.877-22.017-22.018v-5.902h44.035zm3.193-59.509c-2.002 1.404-3.194 3.695-3.194 6.141v32.467h-44.034v-51.361h61.543c-4.18 4.736-8.965 9.001-14.315 12.753zm-280.621-64.825c0-7.829 6.37-14.199 14.199-14.199h15.117v22.754c0 4.143 3.358 7.5 7.5 7.5 4.143 0 7.5-3.357 7.5-7.5v-22.753h26.589v22.754c0 4.143 3.358 7.5 7.5 7.5s7.5-3.357 7.5-7.5v-22.754h26.589v22.754c0 4.143 3.357 7.5 7.5 7.5 4.142 0 7.5-3.357 7.5-7.5v-22.754h26.589v22.754c0 4.143 3.358 7.5 7.5 7.5 4.143 0 7.5-3.357 7.5-7.5v-22.754h26.589v22.754c0 4.143 3.358 7.5 7.5 7.5s7.5-3.357 7.5-7.5v-22.754h26.589v22.754c0 4.143 3.357 7.5 7.5 7.5 4.142 0 7.5-3.357 7.5-7.5v-22.754h26.589v22.754c0 4.143 3.358 7.5 7.5 7.5s7.5-3.357 7.5-7.5v-22.754h26.358.232v22.754c0 4.143 3.358 7.5 7.5 7.5s7.5-3.357 7.5-7.5v-22.754h26.589v22.754c0 4.143 3.358 7.5 7.5 7.5s7.5-3.357 7.5-7.5v-22.754h30.441v22.754c0 4.143 3.358 7.5 7.5 7.5s7.5-3.357 7.5-7.5v-22.754h15.117c7.829 0 14.198 6.37 14.198 14.199v22.871c0 7.829-6.369 14.199-14.198 14.199h-423.388c-7.829 0-14.199-6.37-14.199-14.199z"/></g></g></svg>